# xmcd CD database file
#
# Track frame offsets:
#	150
#	9492
#	24388
#	36649
#	48480
#	63913
#	80502
#	92415
#	102771
#	119435
#	132838
#	145695
#	154701
#	169596
#
# Disc length: 2409 seconds
#
# Revision: 0
# Processed by: cddbd v1.5.2PL0 Copyright (c) Steve Scherf et al.
# Submitted via: CDex 1.70beta2
#
DISCID=ac09670e
DTITLE=Brown Sugar - The Blues You get
DYEAR=2000
DGENRE=Blues
TTITLE0=Down the Road
TTITLE1=The Thrill is gone
TTITLE2=Cry to me
TTITLE3=Who's been Talkin'
TTITLE4=Bring it on Home to me
TTITLE5=Wee Wee Hours
TTITLE6=The Blues You get
TTITLE7=Here little Girl
TTITLE8=Little Red Rooster
TTITLE9=Carol
TTITLE10=Honest I do
TTITLE11=Route 66
TTITLE12=That's when my Soul comes down
TTITLE13=I'm tore down
EXTD=YEAR: 2000
EXTT0=
EXTT1=
EXTT2=
EXTT3=
EXTT4=
EXTT5=
EXTT6=
EXTT7=
EXTT8=
EXTT9=
EXTT10=
EXTT11=
EXTT12=
EXTT13=
PLAYORDER=
